<svg width="195" height="60" viewBox="0 0 195 60" fill="none" xmlns="http://www.w3.org/2000/svg">
<path d="M189.505 42.1053V7.77133H194.358V47.5428H189.922L189.505 42.1053ZM170.51 33.8454V33.3017C170.51 31.1612 170.771 29.2192 171.293 27.4758C171.832 25.7151 172.589 24.2047 173.563 22.9445C174.554 21.6844 175.728 20.7178 177.085 20.0445C178.459 19.3541 179.99 19.0088 181.677 19.0088C183.451 19.0088 185 19.3195 186.322 19.941C187.661 20.5451 188.792 21.4341 189.713 22.6079C190.653 23.7645 191.392 25.1627 191.931 26.8026C192.471 28.4425 192.844 30.2981 193.053 32.3695V34.7517C192.862 36.8059 192.488 38.6529 191.931 40.2928C191.392 41.9326 190.653 43.3309 189.713 44.4874C188.792 45.644 187.661 46.5329 186.322 47.1544C184.982 47.7585 183.417 48.0606 181.625 48.0606C179.973 48.0606 178.459 47.7068 177.085 46.999C175.728 46.2913 174.554 45.2987 173.563 44.0213C172.589 42.744 171.832 41.2422 171.293 39.516C170.771 37.7725 170.51 35.8823 170.51 33.8454ZM175.363 33.3017V33.8454C175.363 35.2437 175.502 36.5556 175.78 37.7812C176.076 39.0068 176.528 40.0856 177.137 41.0178C177.746 41.9499 178.52 42.6835 179.459 43.2187C180.399 43.7365 181.521 43.9954 182.825 43.9954C184.426 43.9954 185.739 43.6588 186.765 42.9856C187.809 42.3124 188.644 41.4234 189.27 40.3187C189.896 39.2139 190.383 38.0142 190.731 36.7195V30.4794C190.522 29.53 190.218 28.6151 189.818 27.7347C189.435 26.8371 188.931 26.0431 188.305 25.3526C187.696 24.6448 186.939 24.0838 186.035 23.6695C185.147 23.2553 184.095 23.0481 182.877 23.0481C181.555 23.0481 180.416 23.3243 179.459 23.8767C178.52 24.4118 177.746 25.1541 177.137 26.1035C176.528 27.0356 176.076 28.1231 175.78 29.366C175.502 30.5916 175.363 31.9035 175.363 33.3017Z" fill="white"/>
<path d="M155.089 48.0608C153.124 48.0608 151.341 47.7328 149.741 47.0769C148.158 46.4037 146.792 45.4629 145.644 44.2545C144.513 43.0462 143.644 41.6135 143.035 39.9563C142.426 38.2992 142.122 36.4867 142.122 34.5188V33.4313C142.122 31.1528 142.461 29.1245 143.139 27.3465C143.818 25.5513 144.74 24.0322 145.905 22.7894C147.07 21.5465 148.392 20.6057 149.871 19.967C151.35 19.3283 152.88 19.009 154.463 19.009C156.481 19.009 158.22 19.3542 159.682 20.0447C161.16 20.7352 162.369 21.7019 163.308 22.9447C164.248 24.1703 164.943 25.6203 165.396 27.2947C165.848 28.9519 166.074 30.7644 166.074 32.7322V34.8813H144.992V30.9715H161.247V30.609C161.177 29.3661 160.917 28.1578 160.464 26.984C160.029 25.8102 159.334 24.8435 158.377 24.084C157.42 23.3245 156.116 22.9447 154.463 22.9447C153.367 22.9447 152.358 23.1778 151.436 23.6438C150.515 24.0926 149.723 24.7659 149.062 25.6635C148.401 26.5611 147.888 27.6572 147.523 28.9519C147.157 30.2465 146.975 31.7397 146.975 33.4313V34.5188C146.975 35.848 147.157 37.0995 147.523 38.2733C147.905 39.4298 148.453 40.4483 149.166 41.3287C149.897 42.209 150.775 42.8995 151.802 43.4001C152.845 43.9007 154.028 44.151 155.35 44.151C157.055 44.151 158.499 43.8057 159.682 43.1153C160.864 42.4248 161.899 41.5013 162.786 40.3447L165.709 42.6492C165.1 43.5641 164.326 44.4358 163.387 45.2644C162.447 46.0929 161.291 46.7662 159.916 47.284C158.56 47.8019 156.951 48.0608 155.089 48.0608Z" fill="white"/>
<path d="M130.615 23.9286V47.5429H125.788V19.5269H130.485L130.615 23.9286ZM139.434 19.3715L139.408 23.8251C139.008 23.7388 138.625 23.687 138.26 23.6697C137.912 23.6352 137.512 23.6179 137.06 23.6179C135.947 23.6179 134.964 23.7906 134.111 24.1358C133.259 24.481 132.537 24.9644 131.946 25.5858C131.354 26.2072 130.885 26.9495 130.537 27.8126C130.206 28.6584 129.989 29.5906 129.885 30.609L128.528 31.3858C128.528 29.6941 128.693 28.106 129.023 26.6215C129.371 25.137 129.902 23.8251 130.615 22.6858C131.328 21.5292 132.233 20.6316 133.329 19.9929C134.442 19.337 135.764 19.009 137.295 19.009C137.642 19.009 138.043 19.0522 138.495 19.1385C138.947 19.2075 139.26 19.2852 139.434 19.3715Z" fill="white"/>
<path d="M114.073 19.5269H118.456V46.9474C118.456 49.4159 117.952 51.5218 116.943 53.2653C115.934 55.0087 114.525 56.3292 112.716 57.2269C110.925 58.1417 108.855 58.5992 106.506 58.5992C105.532 58.5992 104.384 58.4438 103.062 58.1331C101.758 57.8397 100.471 57.3304 99.2007 56.6054C97.9483 55.8977 96.8959 54.9397 96.0436 53.7313L98.5745 50.8831C99.7573 52.2986 100.992 53.2825 102.28 53.8349C103.584 54.3873 104.871 54.6635 106.141 54.6635C107.672 54.6635 108.994 54.3787 110.107 53.809C111.22 53.2394 112.081 52.3935 112.69 51.2715C113.316 50.1667 113.629 48.8031 113.629 47.1804V25.6894L114.073 19.5269ZM94.6346 33.8456V33.3019C94.6346 31.1614 94.8869 29.2194 95.3913 27.476C95.9131 25.7153 96.6524 24.2048 97.6091 22.9447C98.5832 21.6846 99.7573 20.7179 101.132 20.0447C102.506 19.3542 104.054 19.009 105.776 19.009C107.55 19.009 109.098 19.3197 110.42 19.9411C111.76 20.5453 112.89 21.4343 113.812 22.6081C114.751 23.7647 115.491 25.1629 116.03 26.8028C116.569 28.4426 116.943 30.2983 117.152 32.3697V34.7519C116.961 36.806 116.587 38.6531 116.03 40.2929C115.491 41.9328 114.751 43.331 113.812 44.4876C112.89 45.6441 111.76 46.5331 110.42 47.1545C109.081 47.7587 107.515 48.0608 105.724 48.0608C104.036 48.0608 102.506 47.7069 101.132 46.9992C99.7747 46.2914 98.6093 45.2989 97.6352 44.0215C96.6611 42.7441 95.9131 41.2423 95.3913 39.5161C94.8869 37.7727 94.6346 35.8825 94.6346 33.8456ZM99.4616 33.3019V33.8456C99.4616 35.2438 99.6008 36.5557 99.8791 37.7813C100.175 39.0069 100.618 40.0858 101.21 41.0179C101.819 41.9501 102.593 42.6837 103.532 43.2188C104.471 43.7367 105.593 43.9956 106.898 43.9956C108.498 43.9956 109.82 43.659 110.864 42.9858C111.907 42.3126 112.734 41.4236 113.342 40.3188C113.969 39.2141 114.456 38.0144 114.804 36.7197V30.4795C114.612 29.5301 114.317 28.6153 113.917 27.7349C113.534 26.8373 113.029 26.0432 112.403 25.3528C111.794 24.645 111.038 24.084 110.133 23.6697C109.229 23.2554 108.168 23.0483 106.95 23.0483C105.628 23.0483 104.489 23.3245 103.532 23.8769C102.593 24.412 101.819 25.1542 101.21 26.1036C100.618 27.0358 100.175 28.1233 99.8791 29.3661C99.6008 30.5917 99.4616 31.9036 99.4616 33.3019Z" fill="white"/>
<path d="M79.1621 48.0608C77.1965 48.0608 75.4136 47.7328 73.8133 47.0769C72.2304 46.4037 70.8649 45.4629 69.7169 44.2545C68.5862 43.0462 67.7165 41.6135 67.1077 39.9563C66.4989 38.2992 66.1945 36.4867 66.1945 34.5188V33.4313C66.1945 31.1528 66.5337 29.1245 67.212 27.3465C67.8904 25.5513 68.8123 24.0322 69.9778 22.7894C71.1432 21.5465 72.4652 20.6057 73.9437 19.967C75.4223 19.3283 76.953 19.009 78.5359 19.009C80.5537 19.009 82.2931 19.3542 83.7543 20.0447C85.2328 20.7352 86.4417 21.7019 87.381 22.9447C88.3203 24.1703 89.0161 25.6203 89.4684 27.2947C89.9206 28.9519 90.1468 30.7644 90.1468 32.7322V34.8813H69.0646V30.9715H85.3198V30.609C85.2502 29.3661 84.9893 28.1578 84.537 26.984C84.1021 25.8102 83.4064 24.8435 82.4497 24.084C81.493 23.3245 80.1884 22.9447 78.5359 22.9447C77.44 22.9447 76.4312 23.1778 75.5092 23.6438C74.5873 24.0926 73.7959 24.7659 73.1349 25.6635C72.4739 26.5611 71.9608 27.6572 71.5955 28.9519C71.2302 30.2465 71.0475 31.7397 71.0475 33.4313V34.5188C71.0475 35.848 71.2302 37.0995 71.5955 38.2733C71.9781 39.4298 72.5261 40.4483 73.2393 41.3287C73.9698 42.209 74.8482 42.8995 75.8745 43.4001C76.9182 43.9007 78.101 44.151 79.423 44.151C81.1277 44.151 82.5714 43.8057 83.7543 43.1153C84.9371 42.4248 85.9721 41.5013 86.8592 40.3447L89.7815 42.6492C89.1727 43.5641 88.3986 44.4358 87.4593 45.2644C86.52 46.0929 85.3633 46.7662 83.9891 47.284C82.6323 47.8019 81.0233 48.0608 79.1621 48.0608Z" fill="white"/>
<path d="M42.7382 25.5081V47.5429H37.9113V19.5269H42.4773L42.7382 25.5081ZM41.5902 32.4733L39.5811 32.3956C39.5985 30.4795 39.8855 28.7102 40.4422 27.0876C40.9988 25.4477 41.7815 24.0236 42.7904 22.8153C43.7993 21.6069 44.9995 20.6748 46.3911 20.0188C47.8001 19.3456 49.3569 19.009 51.0615 19.009C52.4531 19.009 53.7055 19.1989 54.8188 19.5786C55.932 19.9411 56.88 20.5281 57.6628 21.3394C58.4629 22.1507 59.0717 23.2036 59.4892 24.4983C59.9067 25.7757 60.1154 27.3379 60.1154 29.1849V47.5429H55.2623V29.1331C55.2623 27.6658 55.0449 26.492 54.61 25.6117C54.1752 24.7141 53.5403 24.0667 52.7053 23.6697C51.8704 23.2554 50.8441 23.0483 49.6265 23.0483C48.4263 23.0483 47.3304 23.2986 46.3389 23.7992C45.3648 24.2998 44.5212 24.9903 43.808 25.8706C43.1122 26.751 42.5643 27.7608 42.1642 28.9001C41.7815 30.0221 41.5902 31.2132 41.5902 32.4733Z" fill="white"/>
<path d="M31.1011 27.5017V29.8839C31.1011 32.7148 30.7445 35.2523 30.0314 37.4964C29.3182 39.7404 28.2919 41.6478 26.9525 43.2187C25.6131 44.7895 24.0042 45.9892 22.1255 46.8178C20.2643 47.6464 18.177 48.0606 15.8635 48.0606C13.6196 48.0606 11.5584 47.6464 9.67974 46.8178C7.81853 45.9892 6.20084 44.7895 4.82667 43.2187C3.46989 41.6478 2.41752 39.7404 1.66956 37.4964C0.92159 35.2523 0.547607 32.7148 0.547607 29.8839V27.5017C0.547607 24.6708 0.912893 22.1419 1.64346 19.9151C2.39143 17.6711 3.4438 15.7636 4.80057 14.1928C6.15735 12.6047 7.76634 11.3963 9.62756 10.5678C11.5062 9.73921 13.5674 9.32492 15.8113 9.32492C18.1248 9.32492 20.2121 9.73921 22.0734 10.5678C23.952 11.3963 25.561 12.6047 26.9003 14.1928C28.2571 15.7636 29.2921 17.6711 30.0053 19.9151C30.7358 22.1419 31.1011 24.6708 31.1011 27.5017ZM26.1176 29.8839V27.4499C26.1176 25.2059 25.8828 23.2208 25.4131 21.4946C24.9609 19.7684 24.2912 18.3184 23.404 17.1446C22.5169 15.9708 21.4298 15.0818 20.1426 14.4776C18.8728 13.8734 17.429 13.5713 15.8113 13.5713C14.2458 13.5713 12.8282 13.8734 11.5584 14.4776C10.3059 15.0818 9.22749 15.9708 8.32297 17.1446C7.43585 18.3184 6.74876 19.7684 6.26172 21.4946C5.77467 23.2208 5.53115 25.2059 5.53115 27.4499V29.8839C5.53115 32.1452 5.77467 34.1475 6.26172 35.891C6.74876 37.6172 7.44455 39.0758 8.34906 40.2669C9.27097 41.4407 10.3581 42.3297 11.6105 42.9339C12.8803 43.538 14.298 43.8401 15.8635 43.8401C17.4986 43.8401 18.951 43.538 20.2208 42.9339C21.4906 42.3297 22.5604 41.4407 23.4301 40.2669C24.3173 39.0758 24.9869 37.6172 25.4392 35.891C25.8915 34.1475 26.1176 32.1452 26.1176 29.8839Z" fill="white"/>
<path d="M192.332 55.475V58.5143H191.695V54.65H192.296L192.332 55.475ZM192.177 56.4357L191.918 56.425C191.915 56.1607 191.945 55.9167 192.008 55.6929C192.072 55.4667 192.164 55.2702 192.281 55.1036C192.401 54.9369 192.544 54.8083 192.709 54.7179C192.875 54.625 193.059 54.5786 193.26 54.5786C193.418 54.5786 193.562 54.6048 193.692 54.6572C193.822 54.7072 193.932 54.7881 194.023 54.9C194.114 55.0119 194.184 55.1572 194.232 55.3357C194.282 55.5119 194.307 55.7274 194.307 55.9822V58.5143H193.67V55.975C193.67 55.7726 193.648 55.6107 193.602 55.4893C193.559 55.3655 193.492 55.2762 193.4 55.2214C193.312 55.1643 193.199 55.1357 193.062 55.1357C192.937 55.1357 192.821 55.1702 192.713 55.2393C192.605 55.3083 192.51 55.4036 192.429 55.525C192.35 55.6464 192.287 55.7857 192.242 55.9429C192.198 56.0976 192.177 56.2619 192.177 56.4357Z" fill="white"/>
<path d="M187.862 56.7679V56.4C187.862 56.1 187.9 55.8369 187.977 55.6107C188.054 55.3822 188.16 55.1917 188.297 55.0393C188.434 54.8869 188.593 54.7726 188.776 54.6964C188.958 54.6179 189.154 54.5786 189.362 54.5786C189.576 54.5786 189.774 54.6179 189.956 54.6964C190.138 54.7726 190.298 54.8869 190.435 55.0393C190.574 55.1917 190.682 55.3822 190.759 55.6107C190.835 55.8369 190.874 56.1 190.874 56.4V56.7679C190.874 57.0679 190.835 57.3322 190.759 57.5607C190.682 57.7869 190.575 57.9762 190.438 58.1286C190.302 58.281 190.142 58.3952 189.96 58.4714C189.777 58.5476 189.581 58.5857 189.369 58.5857C189.158 58.5857 188.962 58.5476 188.779 58.4714C188.597 58.3952 188.436 58.281 188.297 58.1286C188.16 57.9762 188.054 57.7869 187.977 57.5607C187.9 57.3322 187.862 57.0679 187.862 56.7679ZM188.499 56.4V56.7679C188.499 56.9798 188.52 57.1655 188.563 57.325C188.607 57.4845 188.668 57.6179 188.747 57.725C188.826 57.8322 188.918 57.9131 189.024 57.9679C189.13 58.0202 189.245 58.0464 189.369 58.0464C189.513 58.0464 189.639 58.0202 189.747 57.9679C189.858 57.9131 189.949 57.8322 190.021 57.725C190.093 57.6179 190.147 57.4845 190.183 57.325C190.219 57.1655 190.237 56.9798 190.237 56.7679V56.4C190.237 56.1881 190.215 56.0036 190.172 55.8464C190.129 55.6869 190.068 55.5536 189.989 55.4464C189.909 55.3369 189.816 55.256 189.708 55.2036C189.602 55.1488 189.487 55.1214 189.362 55.1214C189.24 55.1214 189.126 55.1488 189.02 55.2036C188.915 55.256 188.822 55.3369 188.743 55.4464C188.667 55.5536 188.607 55.6869 188.563 55.8464C188.52 56.0036 188.499 56.1881 188.499 56.4Z" fill="white"/>
<path d="M186.987 54.65V58.5143H186.354V54.65H186.987ZM186.318 53.625C186.318 53.5179 186.348 53.4274 186.408 53.3536C186.468 53.2798 186.558 53.2429 186.678 53.2429C186.797 53.2429 186.887 53.2798 186.947 53.3536C187.01 53.4274 187.041 53.5179 187.041 53.625C187.041 53.7274 187.01 53.8155 186.947 53.8893C186.887 53.9607 186.797 53.9965 186.678 53.9965C186.558 53.9965 186.468 53.9607 186.408 53.8893C186.348 53.8155 186.318 53.7274 186.318 53.625Z" fill="white"/>
<path d="M185.544 54.65V55.1572H183.726V54.65H185.544ZM184.32 53.7107H184.957V57.5572C184.957 57.6881 184.973 57.7869 185.004 57.8536C185.038 57.9202 185.079 57.9643 185.13 57.9857C185.18 58.0072 185.234 58.0179 185.292 58.0179C185.335 58.0179 185.383 58.0131 185.436 58.0036C185.489 57.9917 185.525 57.9822 185.544 57.975L185.54 58.5143C185.497 58.531 185.439 58.5464 185.367 58.5607C185.295 58.5774 185.204 58.5857 185.094 58.5857C184.957 58.5857 184.83 58.5536 184.712 58.4893C184.595 58.425 184.5 58.3179 184.428 58.1679C184.356 58.0155 184.32 57.8107 184.32 57.5536V53.7107Z" fill="white"/>
<path d="M182.528 57.6214V54.65H183.165V58.5143H182.561L182.528 57.6214ZM182.647 56.8071L182.899 56.8C182.899 57.0571 182.876 57.2952 182.831 57.5143C182.787 57.7309 182.715 57.919 182.615 58.0786C182.516 58.2381 182.385 58.3631 182.222 58.4536C182.059 58.5417 181.859 58.5857 181.621 58.5857C181.461 58.5857 181.314 58.5583 181.182 58.5036C181.053 58.4488 180.94 58.3643 180.844 58.25C180.75 58.1357 180.677 57.9869 180.624 57.8036C180.574 57.6202 180.549 57.4 180.549 57.1429V54.65H181.182V57.15C181.182 57.3238 181.198 57.4679 181.229 57.5821C181.26 57.694 181.302 57.7833 181.355 57.85C181.408 57.9143 181.467 57.9595 181.531 57.9857C181.596 58.0119 181.662 58.025 181.729 58.025C181.955 58.025 182.135 57.9714 182.269 57.8643C182.403 57.7548 182.499 57.6083 182.557 57.425C182.617 57.2393 182.647 57.0333 182.647 56.8071Z" fill="white"/>
<path d="M179.552 53.0286V58.5143H178.918V53.0286H179.552Z" fill="white"/>
<path d="M175.036 56.7679V56.4C175.036 56.1 175.074 55.8369 175.151 55.6107C175.227 55.3822 175.334 55.1917 175.471 55.0393C175.608 54.8869 175.767 54.7726 175.95 54.6964C176.132 54.6179 176.328 54.5786 176.536 54.5786C176.75 54.5786 176.948 54.6179 177.13 54.6964C177.312 54.7726 177.472 54.8869 177.609 55.0393C177.748 55.1917 177.856 55.3822 177.933 55.6107C178.009 55.8369 178.048 56.1 178.048 56.4V56.7679C178.048 57.0679 178.009 57.3322 177.933 57.5607C177.856 57.7869 177.749 57.9762 177.612 58.1286C177.476 58.281 177.316 58.3952 177.134 58.4714C176.951 58.5476 176.755 58.5857 176.543 58.5857C176.332 58.5857 176.136 58.5476 175.953 58.4714C175.771 58.3952 175.61 58.281 175.471 58.1286C175.334 57.9762 175.227 57.7869 175.151 57.5607C175.074 57.3322 175.036 57.0679 175.036 56.7679ZM175.673 56.4V56.7679C175.673 56.9798 175.694 57.1655 175.737 57.325C175.78 57.4845 175.842 57.6179 175.921 57.725C176 57.8322 176.092 57.9131 176.198 57.9679C176.304 58.0202 176.419 58.0464 176.543 58.0464C176.687 58.0464 176.813 58.0202 176.921 57.9679C177.032 57.9131 177.123 57.8322 177.195 57.725C177.267 57.6179 177.321 57.4845 177.357 57.325C177.393 57.1655 177.411 56.9798 177.411 56.7679V56.4C177.411 56.1881 177.389 56.0036 177.346 55.8464C177.303 55.6869 177.242 55.5536 177.162 55.4464C177.083 55.3369 176.99 55.256 176.882 55.2036C176.776 55.1488 176.661 55.1214 176.536 55.1214C176.414 55.1214 176.3 55.1488 176.194 55.2036C176.089 55.256 175.996 55.3369 175.917 55.4464C175.84 55.5536 175.78 55.6869 175.737 55.8464C175.694 56.0036 175.673 56.1881 175.673 56.4Z" fill="white"/>
<path d="M173.725 57.2C173.725 57.0786 173.711 56.9715 173.682 56.8786C173.653 56.7834 173.603 56.6977 173.531 56.6215C173.459 56.5453 173.358 56.4727 173.229 56.4036C173.099 56.3346 172.935 56.2643 172.736 56.1929C172.52 56.1167 172.324 56.0322 172.149 55.9393C171.974 55.8441 171.824 55.7357 171.699 55.6143C171.577 55.4929 171.482 55.3536 171.415 55.1965C171.348 55.0393 171.314 54.8596 171.314 54.6572C171.314 54.4548 171.349 54.2679 171.419 54.0965C171.491 53.925 171.591 53.7762 171.721 53.65C171.853 53.5215 172.011 53.4215 172.196 53.35C172.381 53.2786 172.587 53.2429 172.815 53.2429C173.156 53.2429 173.442 53.3179 173.675 53.4679C173.91 53.6155 174.088 53.8096 174.208 54.05C174.328 54.2881 174.388 54.5429 174.388 54.8143H173.725C173.725 54.6191 173.693 54.4465 173.628 54.2965C173.566 54.1441 173.468 54.025 173.333 53.9393C173.201 53.8512 173.028 53.8072 172.815 53.8072C172.623 53.8072 172.465 53.8441 172.34 53.9179C172.218 53.9917 172.126 54.0917 172.066 54.2179C172.009 54.3441 171.98 54.4881 171.98 54.65C171.98 54.7596 171.999 54.8596 172.038 54.95C172.076 55.0381 172.135 55.1203 172.214 55.1965C172.295 55.2727 172.396 55.3429 172.516 55.4072C172.639 55.4715 172.783 55.5334 172.948 55.5929C173.205 55.6762 173.424 55.7691 173.607 55.8715C173.789 55.9738 173.938 56.0893 174.053 56.2179C174.168 56.3441 174.252 56.4881 174.305 56.65C174.36 56.8096 174.388 56.9905 174.388 57.1929C174.388 57.4048 174.352 57.5965 174.28 57.7679C174.21 57.9393 174.108 58.0857 173.974 58.2072C173.839 58.3286 173.677 58.4227 173.488 58.4893C173.298 58.5536 173.085 58.5857 172.847 58.5857C172.641 58.5857 172.438 58.5524 172.239 58.4857C172.042 58.4191 171.864 58.3191 171.703 58.1857C171.542 58.0524 171.414 57.8881 171.318 57.6929C171.222 57.4953 171.174 57.2667 171.174 57.0072H171.836C171.836 57.1857 171.862 57.3393 171.915 57.4679C171.968 57.5941 172.041 57.6988 172.135 57.7822C172.228 57.8655 172.335 57.9274 172.455 57.9679C172.577 58.006 172.708 58.025 172.847 58.025C173.039 58.025 173.2 57.9917 173.33 57.925C173.462 57.8584 173.56 57.7631 173.625 57.6393C173.692 57.5155 173.725 57.3691 173.725 57.2Z" fill="white"/>
<path d="M166.657 55.3929V60H166.02V54.65H166.6L166.657 55.3929ZM168.834 56.4072V56.7679C168.834 57.0726 168.806 57.3393 168.748 57.5679C168.693 57.7941 168.61 57.9833 168.5 58.1357C168.392 58.2857 168.259 58.3988 168.1 58.475C167.942 58.5488 167.761 58.5857 167.557 58.5857C167.353 58.5857 167.175 58.5476 167.024 58.4714C166.875 58.3929 166.75 58.2798 166.646 58.1322C166.546 57.9845 166.465 57.8072 166.405 57.6C166.348 57.3905 166.308 57.156 166.286 56.8964V56.3464C166.308 56.0726 166.348 55.8274 166.405 55.6107C166.463 55.3917 166.542 55.206 166.643 55.0536C166.746 54.8988 166.872 54.781 167.021 54.7C167.172 54.6191 167.348 54.5786 167.55 54.5786C167.758 54.5786 167.942 54.6143 168.1 54.6857C168.261 54.7572 168.395 54.8679 168.503 55.0179C168.614 55.1655 168.697 55.3548 168.752 55.5857C168.807 55.8143 168.834 56.0881 168.834 56.4072ZM168.197 56.7679V56.4072C168.197 56.1929 168.181 56.006 168.147 55.8464C168.116 55.6869 168.066 55.5548 167.996 55.45C167.926 55.3452 167.839 55.2667 167.733 55.2143C167.628 55.1619 167.5 55.1357 167.352 55.1357C167.225 55.1357 167.112 55.1619 167.013 55.2143C166.917 55.2667 166.835 55.3381 166.765 55.4286C166.696 55.5167 166.638 55.6179 166.592 55.7322C166.547 55.8441 166.513 55.9607 166.492 56.0822V57.1643C166.532 57.3167 166.586 57.4607 166.654 57.5964C166.721 57.7298 166.811 57.8381 166.923 57.9214C167.039 58.0048 167.184 58.0464 167.359 58.0464C167.505 58.0464 167.631 58.0202 167.737 57.9679C167.842 57.9155 167.929 57.8369 167.996 57.7322C168.066 57.625 168.116 57.4917 168.147 57.3322C168.181 57.1702 168.197 56.9822 168.197 56.7679Z" fill="white"/>
<path d="M162.187 56.7679V56.4C162.187 56.1 162.226 55.8369 162.303 55.6107C162.379 55.3822 162.486 55.1917 162.623 55.0393C162.76 54.8869 162.919 54.7726 163.101 54.6964C163.284 54.6179 163.479 54.5786 163.688 54.5786C163.902 54.5786 164.1 54.6179 164.282 54.6964C164.464 54.7726 164.624 54.8869 164.761 55.0393C164.9 55.1917 165.008 55.3822 165.084 55.6107C165.161 55.8369 165.2 56.1 165.2 56.4V56.7679C165.2 57.0679 165.161 57.3322 165.084 57.5607C165.008 57.7869 164.901 57.9762 164.764 58.1286C164.627 58.281 164.468 58.3952 164.286 58.4714C164.103 58.5476 163.906 58.5857 163.695 58.5857C163.484 58.5857 163.287 58.5476 163.105 58.4714C162.923 58.3952 162.762 58.281 162.623 58.1286C162.486 57.9762 162.379 57.7869 162.303 57.5607C162.226 57.3322 162.187 57.0679 162.187 56.7679ZM162.824 56.4V56.7679C162.824 56.9798 162.846 57.1655 162.889 57.325C162.932 57.4845 162.994 57.6179 163.073 57.725C163.152 57.8322 163.244 57.9131 163.35 57.9679C163.455 58.0202 163.571 58.0464 163.695 58.0464C163.839 58.0464 163.965 58.0202 164.073 57.9679C164.184 57.9131 164.275 57.8322 164.347 57.725C164.419 57.6179 164.473 57.4845 164.509 57.325C164.545 57.1655 164.563 56.9798 164.563 56.7679V56.4C164.563 56.1881 164.541 56.0036 164.498 55.8464C164.455 55.6869 164.393 55.5536 164.314 55.4464C164.235 55.3369 164.142 55.256 164.034 55.2036C163.928 55.1488 163.813 55.1214 163.688 55.1214C163.566 55.1214 163.452 55.1488 163.346 55.2036C163.241 55.256 163.148 55.3369 163.069 55.4464C162.992 55.5536 162.932 55.6869 162.889 55.8464C162.846 56.0036 162.824 56.1881 162.824 56.4Z" fill="white"/>
<path d="M161.633 54.65V55.1572H159.816V54.65H161.633ZM160.41 53.7107H161.047V57.5572C161.047 57.6881 161.062 57.7869 161.093 57.8536C161.127 57.9202 161.169 57.9643 161.219 57.9857C161.27 58.0072 161.324 58.0179 161.381 58.0179C161.424 58.0179 161.472 58.0131 161.525 58.0036C161.578 57.9917 161.614 57.9822 161.633 57.975L161.63 58.5143C161.586 58.531 161.529 58.5464 161.457 58.5607C161.385 58.5774 161.294 58.5857 161.183 58.5857C161.047 58.5857 160.919 58.5536 160.802 58.4893C160.684 58.425 160.59 58.3179 160.518 58.1679C160.446 58.0155 160.41 57.8107 160.41 57.5536V53.7107Z" fill="white"/>
<path d="M158.768 57.2C158.768 57.0786 158.754 56.9715 158.725 56.8786C158.696 56.7834 158.646 56.6977 158.574 56.6215C158.502 56.5453 158.401 56.4727 158.272 56.4036C158.142 56.3346 157.978 56.2643 157.779 56.1929C157.563 56.1167 157.367 56.0322 157.192 55.9393C157.017 55.8441 156.867 55.7357 156.742 55.6143C156.62 55.4929 156.525 55.3536 156.458 55.1965C156.391 55.0393 156.357 54.8596 156.357 54.6572C156.357 54.4548 156.392 54.2679 156.461 54.0965C156.533 53.925 156.634 53.7762 156.764 53.65C156.896 53.5215 157.054 53.4215 157.239 53.35C157.423 53.2786 157.63 53.2429 157.858 53.2429C158.198 53.2429 158.485 53.3179 158.718 53.4679C158.953 53.6155 159.131 53.8096 159.251 54.05C159.37 54.2881 159.43 54.5429 159.43 54.8143H158.768C158.768 54.6191 158.736 54.4465 158.671 54.2965C158.609 54.1441 158.51 54.025 158.376 53.9393C158.244 53.8512 158.071 53.8072 157.858 53.8072C157.666 53.8072 157.507 53.8441 157.383 53.9179C157.26 53.9917 157.169 54.0917 157.109 54.2179C157.052 54.3441 157.023 54.4881 157.023 54.65C157.023 54.7596 157.042 54.8596 157.08 54.95C157.119 55.0381 157.178 55.1203 157.257 55.1965C157.338 55.2727 157.439 55.3429 157.559 55.4072C157.681 55.4715 157.825 55.5334 157.991 55.5929C158.248 55.6762 158.467 55.7691 158.65 55.8715C158.832 55.9738 158.981 56.0893 159.096 56.2179C159.211 56.3441 159.295 56.4881 159.348 56.65C159.403 56.8096 159.43 56.9905 159.43 57.1929C159.43 57.4048 159.394 57.5965 159.323 57.7679C159.253 57.9393 159.151 58.0857 159.017 58.2072C158.882 58.3286 158.72 58.4227 158.531 58.4893C158.341 58.5536 158.128 58.5857 157.89 58.5857C157.684 58.5857 157.481 58.5524 157.282 58.4857C157.085 58.4191 156.906 58.3191 156.746 58.1857C156.585 58.0524 156.457 57.8881 156.361 57.6929C156.265 57.4953 156.217 57.2667 156.217 57.0072H156.879C156.879 57.1857 156.905 57.3393 156.958 57.4679C157.011 57.5941 157.084 57.6988 157.178 57.7822C157.271 57.8655 157.378 57.9274 157.498 57.9679C157.62 58.006 157.751 58.025 157.89 58.025C158.082 58.025 158.243 57.9917 158.372 57.925C158.504 57.8584 158.603 57.7631 158.668 57.6393C158.735 57.5155 158.768 57.3691 158.768 57.2Z" fill="white"/>
<path d="M152.636 58.5857C152.403 58.5857 152.193 58.5512 152.006 58.4822C151.819 58.4131 151.659 58.3083 151.527 58.1679C151.395 58.025 151.295 57.8452 151.225 57.6286C151.156 57.4119 151.121 57.156 151.121 56.8607V56.425C151.121 56.0845 151.16 55.7964 151.239 55.5607C151.321 55.325 151.43 55.1357 151.567 54.9929C151.704 54.8476 151.858 54.7429 152.031 54.6786C152.204 54.6119 152.382 54.5786 152.564 54.5786C152.809 54.5786 153.017 54.6179 153.19 54.6964C153.363 54.775 153.503 54.8917 153.611 55.0464C153.719 55.2012 153.798 55.3917 153.849 55.6179C153.901 55.8441 153.928 56.1048 153.928 56.4V56.7679H151.495V56.2286H153.291V56.1393C153.281 55.9393 153.254 55.7631 153.208 55.6107C153.165 55.4583 153.093 55.3393 152.992 55.2536C152.891 55.1655 152.749 55.1214 152.564 55.1214C152.446 55.1214 152.337 55.1417 152.236 55.1822C152.138 55.2202 152.053 55.2881 151.981 55.3857C151.911 55.481 151.856 55.6131 151.815 55.7822C151.777 55.9512 151.758 56.1655 151.758 56.425V56.8607C151.758 57.0679 151.777 57.2464 151.815 57.3964C151.856 57.5441 151.915 57.6667 151.992 57.7643C152.071 57.8595 152.167 57.931 152.28 57.9786C152.395 58.0238 152.525 58.0464 152.672 58.0464C152.885 58.0464 153.062 58.006 153.201 57.925C153.34 57.8417 153.461 57.7357 153.564 57.6072L153.899 58.0036C153.829 58.1012 153.738 58.1952 153.626 58.2857C153.515 58.3738 153.378 58.4464 153.215 58.5036C153.055 58.5583 152.861 58.5857 152.636 58.5857Z" fill="white"/>
<path d="M148.31 55.475V58.5143H147.673V54.65H148.274L148.31 55.475ZM148.155 56.4357L147.896 56.425C147.894 56.1607 147.924 55.9167 147.986 55.6929C148.051 55.4667 148.142 55.2702 148.26 55.1036C148.38 54.9369 148.522 54.8083 148.688 54.7179C148.853 54.625 149.037 54.5786 149.238 54.5786C149.397 54.5786 149.541 54.6048 149.67 54.6572C149.8 54.7072 149.91 54.7881 150.001 54.9C150.093 55.0119 150.162 55.1572 150.21 55.3357C150.261 55.5119 150.286 55.7274 150.286 55.9822V58.5143H149.649V55.975C149.649 55.7726 149.626 55.6107 149.58 55.4893C149.537 55.3655 149.47 55.2762 149.379 55.2214C149.29 55.1643 149.177 55.1357 149.041 55.1357C148.916 55.1357 148.799 55.1702 148.691 55.2393C148.583 55.3083 148.489 55.4036 148.407 55.525C148.328 55.6464 148.266 55.7857 148.22 55.9429C148.177 56.0976 148.155 56.2619 148.155 56.4357Z" fill="white"/>
<path d="M146.734 55.4643V56.3679C146.734 56.7346 146.693 57.0572 146.612 57.3357C146.532 57.6119 146.416 57.8429 146.262 58.0286C146.109 58.2143 145.924 58.3536 145.708 58.4465C145.492 58.5393 145.249 58.5857 144.978 58.5857C144.716 58.5857 144.477 58.5393 144.262 58.4465C144.046 58.3536 143.86 58.2143 143.704 58.0286C143.548 57.8429 143.427 57.6119 143.34 57.3357C143.256 57.0572 143.214 56.7346 143.214 56.3679V55.4643C143.214 55.0977 143.256 54.7762 143.34 54.5C143.424 54.2215 143.544 53.9893 143.7 53.8036C143.856 53.6179 144.042 53.4786 144.258 53.3857C144.474 53.2905 144.713 53.2429 144.974 53.2429C145.245 53.2429 145.489 53.2905 145.705 53.3857C145.923 53.4786 146.108 53.6179 146.259 53.8036C146.412 53.9893 146.53 54.2215 146.612 54.5C146.693 54.7762 146.734 55.0977 146.734 55.4643ZM146.079 56.3679V55.4572C146.079 55.1715 146.055 54.9262 146.007 54.7215C145.959 54.5143 145.888 54.3453 145.795 54.2143C145.701 54.0834 145.586 53.9869 145.449 53.925C145.312 53.8607 145.154 53.8286 144.974 53.8286C144.804 53.8286 144.65 53.8607 144.513 53.925C144.379 53.9869 144.264 54.0834 144.168 54.2143C144.072 54.3453 143.998 54.5143 143.945 54.7215C143.894 54.9262 143.869 55.1715 143.869 55.4572V56.3679C143.869 56.656 143.894 56.9036 143.945 57.1107C143.998 57.3155 144.072 57.4846 144.168 57.6179C144.266 57.7488 144.384 57.8465 144.521 57.9107C144.657 57.9727 144.81 58.0036 144.978 58.0036C145.158 58.0036 145.316 57.9727 145.453 57.9107C145.592 57.8465 145.707 57.7488 145.798 57.6179C145.892 57.4846 145.961 57.3155 146.007 57.1107C146.055 56.9036 146.079 56.656 146.079 56.3679Z" fill="white"/>
<path d="M50.5517 10.7948C79.1931 -2.30008 123.979 -2.1757 152.91 8.39585C154.979 9.01365 152.888 10.1703 151.114 9.70409C135.247 6.14745 118.01 4.4628 100.762 4.78301C83.5151 5.10321 66.7291 7.41951 51.7285 11.5492C50.5366 11.9778 49.3599 11.2234 50.5517 10.7948Z" fill="white"/>
<path d="M149.699 12.1328C151.455 13.2176 155.059 13.7093 157.215 12.8902C158.023 12.6307 158.101 12.4788 158.07 11.601C158.045 9.96015 156.925 6.13429 154.595 4.85333C154.136 4.6201 153.943 4.80905 154.055 5.15349C154.697 6.34228 156.432 10.0976 155.696 10.9682C155.037 11.6869 151.355 11.3471 149.82 11.3327C149.168 11.2884 149.203 11.7847 149.699 12.1328Z" fill="white"/>
</svg>
