<svg width="250" height="250" viewBox="0 0 250 250" fill="none" xmlns="http://www.w3.org/2000/svg">
<rect width="250" height="250" rx="125" fill="#1D92FF"/>
<path d="M217.142 138.146V103.779H222V143.589H217.56L217.142 138.146ZM198.129 129.879V129.334C198.129 127.192 198.39 125.248 198.912 123.503C199.452 121.74 200.209 120.228 201.184 118.967C202.177 117.706 203.352 116.738 204.71 116.064C206.086 115.373 207.618 115.027 209.307 115.027C211.083 115.027 212.633 115.338 213.956 115.96C215.296 116.565 216.428 117.455 217.351 118.63C218.291 119.788 219.031 121.187 219.571 122.829C220.111 124.47 220.485 126.328 220.694 128.401V130.786C220.503 132.842 220.128 134.691 219.571 136.332C219.031 137.974 218.291 139.373 217.351 140.531C216.428 141.689 215.296 142.578 213.956 143.201C212.615 143.805 211.048 144.108 209.255 144.108C207.601 144.108 206.086 143.753 204.71 143.045C203.352 142.337 202.177 141.343 201.184 140.064C200.209 138.786 199.452 137.283 198.912 135.555C198.39 133.809 198.129 131.917 198.129 129.879ZM202.986 129.334V129.879C202.986 131.278 203.126 132.591 203.404 133.818C203.7 135.045 204.153 136.125 204.762 137.058C205.372 137.991 206.147 138.725 207.087 139.261C208.027 139.779 209.15 140.038 210.456 140.038C212.058 140.038 213.373 139.702 214.4 139.028C215.444 138.354 216.28 137.464 216.907 136.358C217.534 135.252 218.021 134.051 218.37 132.755V126.509C218.161 125.559 217.856 124.643 217.456 123.762C217.072 122.863 216.568 122.069 215.941 121.377C215.331 120.669 214.574 120.107 213.668 119.693C212.781 119.278 211.727 119.071 210.508 119.071C209.185 119.071 208.045 119.347 207.087 119.9C206.147 120.436 205.372 121.179 204.762 122.129C204.153 123.062 203.7 124.151 203.404 125.395C203.126 126.621 202.986 127.935 202.986 129.334Z" fill="white"/>
<path d="M182.693 144.108C180.725 144.108 178.941 143.78 177.339 143.123C175.754 142.449 174.388 141.507 173.238 140.298C172.107 139.088 171.236 137.654 170.627 135.995C170.017 134.337 169.713 132.522 169.713 130.553V129.464C169.713 127.183 170.052 125.153 170.731 123.373C171.41 121.576 172.333 120.056 173.5 118.812C174.666 117.568 175.99 116.626 177.47 115.987C178.949 115.347 180.482 115.028 182.066 115.028C184.086 115.028 185.827 115.373 187.29 116.064C188.77 116.755 189.98 117.723 190.92 118.967C191.86 120.194 192.557 121.645 193.009 123.321C193.462 124.98 193.688 126.794 193.688 128.764V130.915H172.586V127.002H188.857V126.639C188.787 125.395 188.526 124.185 188.073 123.01C187.638 121.835 186.941 120.868 185.984 120.108C185.026 119.347 183.72 118.967 182.066 118.967C180.969 118.967 179.959 119.2 179.037 119.667C178.114 120.116 177.322 120.79 176.66 121.689C175.998 122.587 175.485 123.684 175.119 124.98C174.753 126.276 174.57 127.771 174.57 129.464V130.553C174.57 131.883 174.753 133.136 175.119 134.311C175.502 135.468 176.05 136.488 176.764 137.369C177.496 138.25 178.375 138.941 179.402 139.443C180.447 139.944 181.631 140.194 182.954 140.194C184.66 140.194 186.106 139.849 187.29 139.157C188.474 138.466 189.51 137.542 190.398 136.384L193.323 138.691C192.713 139.607 191.939 140.479 190.998 141.309C190.058 142.138 188.9 142.812 187.525 143.33C186.167 143.849 184.556 144.108 182.693 144.108Z" fill="white"/>
<path d="M158.195 119.952V143.589H153.363V115.546H158.064L158.195 119.952ZM167.022 115.39L166.996 119.848C166.596 119.762 166.213 119.71 165.847 119.693C165.499 119.658 165.098 119.641 164.646 119.641C163.531 119.641 162.548 119.814 161.694 120.159C160.841 120.505 160.119 120.989 159.527 121.611C158.935 122.233 158.465 122.976 158.116 123.84C157.786 124.686 157.568 125.62 157.463 126.639L156.105 127.417C156.105 125.723 156.271 124.134 156.602 122.648C156.95 121.162 157.481 119.848 158.195 118.708C158.909 117.55 159.814 116.652 160.911 116.012C162.025 115.356 163.349 115.028 164.881 115.028C165.229 115.028 165.629 115.071 166.082 115.157C166.535 115.226 166.848 115.304 167.022 115.39Z" fill="white"/>
<path d="M141.637 115.546H146.024V142.993C146.024 145.464 145.519 147.572 144.51 149.317C143.5 151.063 142.089 152.384 140.279 153.283C138.485 154.199 136.413 154.657 134.063 154.657C133.088 154.657 131.938 154.501 130.615 154.19C129.309 153.896 128.021 153.387 126.75 152.661C125.496 151.952 124.443 150.993 123.59 149.784L126.123 146.933C127.307 148.35 128.543 149.335 129.832 149.888C131.137 150.441 132.426 150.717 133.697 150.717C135.229 150.717 136.552 150.432 137.667 149.862C138.781 149.291 139.643 148.445 140.252 147.322C140.879 146.216 141.193 144.851 141.193 143.227V121.715L141.637 115.546ZM122.179 129.879V129.334C122.179 127.192 122.432 125.248 122.937 123.503C123.459 121.74 124.199 120.229 125.157 118.967C126.132 117.706 127.307 116.738 128.682 116.064C130.058 115.373 131.608 115.028 133.331 115.028C135.107 115.028 136.657 115.339 137.98 115.961C139.321 116.565 140.453 117.455 141.375 118.63C142.316 119.788 143.056 121.187 143.595 122.829C144.135 124.47 144.51 126.328 144.718 128.401V130.786C144.527 132.842 144.153 134.691 143.595 136.332C143.056 137.974 142.316 139.373 141.375 140.531C140.453 141.689 139.321 142.579 137.98 143.201C136.64 143.805 135.072 144.108 133.279 144.108C131.59 144.108 130.058 143.754 128.682 143.045C127.324 142.337 126.158 141.343 125.183 140.065C124.208 138.786 123.459 137.283 122.937 135.555C122.432 133.81 122.179 131.918 122.179 129.879ZM127.011 129.334V129.879C127.011 131.278 127.15 132.592 127.429 133.818C127.725 135.045 128.169 136.125 128.761 137.058C129.37 137.991 130.145 138.725 131.085 139.261C132.025 139.779 133.148 140.039 134.454 140.039C136.056 140.039 137.38 139.702 138.424 139.028C139.469 138.354 140.296 137.464 140.905 136.358C141.532 135.252 142.02 134.052 142.368 132.756V126.509C142.176 125.559 141.88 124.643 141.48 123.762C141.097 122.864 140.592 122.069 139.965 121.378C139.356 120.669 138.598 120.108 137.693 119.693C136.788 119.278 135.725 119.071 134.507 119.071C133.183 119.071 132.043 119.347 131.085 119.9C130.145 120.436 129.37 121.179 128.761 122.129C128.169 123.062 127.725 124.151 127.429 125.395C127.15 126.622 127.011 127.935 127.011 129.334Z" fill="white"/>
<path d="M106.692 144.108C104.724 144.108 102.939 143.78 101.337 143.123C99.753 142.449 98.3862 141.507 97.237 140.298C96.1053 139.088 95.2347 137.654 94.6253 135.995C94.0159 134.337 93.7112 132.522 93.7112 130.553V129.464C93.7112 127.183 94.0507 125.153 94.7298 123.373C95.4088 121.576 96.3316 120.056 97.4982 118.812C98.6648 117.568 99.9881 116.626 101.468 115.987C102.948 115.347 104.48 115.028 106.065 115.028C108.084 115.028 109.826 115.373 111.288 116.064C112.768 116.755 113.978 117.723 114.918 118.967C115.859 120.194 116.555 121.645 117.008 123.321C117.461 124.98 117.687 126.794 117.687 128.764V130.915H96.5841V127.002H112.855V126.639C112.786 125.395 112.524 124.185 112.072 123.01C111.636 121.835 110.94 120.868 109.982 120.108C109.025 119.347 107.719 118.967 106.065 118.967C104.968 118.967 103.958 119.2 103.035 119.667C102.112 120.116 101.32 120.79 100.658 121.689C99.9968 122.587 99.4831 123.684 99.1175 124.98C98.7518 126.276 98.569 127.771 98.569 129.464V130.553C98.569 131.883 98.7518 133.136 99.1175 134.311C99.5005 135.468 100.049 136.488 100.763 137.369C101.494 138.25 102.373 138.941 103.401 139.443C104.445 139.944 105.629 140.194 106.953 140.194C108.659 140.194 110.104 139.849 111.288 139.157C112.472 138.466 113.508 137.542 114.396 136.384L117.321 138.691C116.712 139.607 115.937 140.479 114.997 141.309C114.057 142.138 112.899 142.812 111.523 143.33C110.165 143.849 108.555 144.108 106.692 144.108Z" fill="white"/>
<path d="M70.232 121.533V143.589H65.4003V115.546H69.9708L70.232 121.533ZM69.0828 128.505L67.0718 128.427C67.0892 126.509 67.3765 124.738 67.9337 123.114C68.4908 121.473 69.2743 120.047 70.2842 118.838C71.2941 117.628 72.4955 116.695 73.8884 116.038C75.2987 115.365 76.8571 115.028 78.5634 115.028C79.9563 115.028 81.21 115.218 82.3243 115.598C83.4387 115.961 84.3876 116.548 85.1711 117.36C85.972 118.172 86.5814 119.226 86.9993 120.522C87.4172 121.801 87.6261 123.365 87.6261 125.213V143.589H82.7683V125.162C82.7683 123.693 82.5507 122.518 82.1154 121.637C81.6801 120.738 81.0446 120.09 80.2088 119.693C79.3731 119.278 78.3458 119.071 77.127 119.071C75.9256 119.071 74.8286 119.321 73.8362 119.822C72.8611 120.324 72.0167 121.015 71.3028 121.896C70.6063 122.777 70.0579 123.788 69.6574 124.928C69.2743 126.051 69.0828 127.244 69.0828 128.505Z" fill="white"/>
<path d="M58.5834 123.529V125.913C58.5834 128.747 58.2265 131.287 57.5126 133.533C56.7987 135.779 55.7715 137.689 54.4308 139.261C53.0901 140.833 51.4795 142.034 49.5991 142.864C47.736 143.693 45.6466 144.108 43.3309 144.108C41.0848 144.108 39.0215 143.693 37.1411 142.864C35.278 142.034 33.6588 140.833 32.2832 139.261C30.9251 137.689 29.8717 135.779 29.123 133.533C28.3743 131.287 28 128.747 28 125.913V123.529C28 120.695 28.3656 118.164 29.0969 115.935C29.8456 113.688 30.899 111.779 32.2571 110.207C33.6152 108.617 35.2258 107.408 37.0888 106.578C38.9693 105.749 41.0326 105.334 43.2787 105.334C45.5944 105.334 47.6838 105.749 49.5468 106.578C51.4273 107.408 53.0378 108.617 54.3785 110.207C55.7366 111.779 56.7726 113.688 57.4865 115.935C58.2178 118.164 58.5834 120.695 58.5834 123.529ZM53.595 125.913V123.477C53.595 121.231 53.36 119.243 52.8899 117.516C52.4371 115.788 51.7668 114.336 50.8788 113.161C49.9908 111.986 48.9026 111.097 47.6141 110.492C46.3431 109.887 44.8979 109.585 43.2787 109.585C41.7116 109.585 40.2926 109.887 39.0215 110.492C37.7679 111.097 36.6884 111.986 35.783 113.161C34.895 114.336 34.2072 115.788 33.7197 117.516C33.2322 119.243 32.9884 121.231 32.9884 123.477V125.913C32.9884 128.177 33.2322 130.181 33.7197 131.926C34.2072 133.654 34.9037 135.114 35.8091 136.306C36.7319 137.481 37.8201 138.371 39.0738 138.976C40.3448 139.581 41.7639 139.883 43.3309 139.883C44.9676 139.883 46.4214 139.581 47.6925 138.976C48.9635 138.371 50.0344 137.481 50.9049 136.306C51.7929 135.114 52.4633 133.654 52.916 131.926C53.3687 130.181 53.595 128.177 53.595 125.913Z" fill="white"/>
<path d="M78.0531 106.805C106.723 93.6977 151.552 93.8222 180.512 104.404C182.582 105.022 180.489 106.18 178.714 105.714C162.831 102.153 145.577 100.467 128.313 100.788C111.049 101.108 94.2463 103.427 79.231 107.561C78.0379 107.99 76.86 107.234 78.0531 106.805Z" fill="white"/>
<path d="M177.297 108.145C179.055 109.231 182.663 109.723 184.821 108.903C185.63 108.643 185.708 108.491 185.677 107.612C185.652 105.97 184.531 102.14 182.198 100.858C181.739 100.625 181.545 100.814 181.658 101.159C182.301 102.349 184.037 106.108 183.3 106.979C182.641 107.698 178.956 107.358 177.419 107.344C176.766 107.299 176.801 107.796 177.297 108.145Z" fill="white"/>
</svg>
